<?xml version="1.0"?>
<svg xmlns="http://www.w3.org/2000/svg" viewBox="6400 2300 9200 3400" preserveAspectRatio="xMinYMid meet">
  <path fill="#E8F0EE" d="M7068.89 4595.43c20.34,116.43 70.7,207 151.09,271.67 80.4,64.69 179.73,97.03 298.02,97.03 77.62,0 147.85,-14.32 210.68,-42.97 62.84,-28.65 114.59,-69.76 155.25,-123.36l313.26 0c-53.59,133.07 -139.06,237.95 -256.43,314.64 -117.35,76.7 -258.28,115.06 -422.76,115.06 -109.04,0 -208.85,-17.57 -299.41,-52.68 -90.55,-35.12 -168.18,-85.01 -232.85,-149.7 -64.69,-64.69 -114.6,-142.31 -149.72,-232.87 -35.11,-90.56 -52.66,-190.35 -52.66,-299.39 0,-109.05 17.55,-208.85 52.66,-299.41 35.12,-90.56 85.03,-168.18 149.72,-232.87 64.67,-64.68 142.3,-114.58 232.85,-149.7 90.56,-35.11 190.37,-52.66 299.41,-52.66 109.04,0 208.83,17.55 299.4,52.66 90.56,35.12 168.18,85.02 232.86,149.7 64.69,64.69 114.59,142.31 149.7,232.87 35.12,90.56 52.68,190.36 52.68,299.41 0,18.48 -0.46,36.03 -1.39,52.66 -0.92,16.63 -2.31,33.28 -4.15,49.91l-1178.21 0zm884.35 -263.36c-27.72,-99.81 -79.94,-176.51 -156.64,-230.1 -76.7,-53.6 -169.56,-80.39 -278.6,-80.39 -109.04,0 -201.92,26.79 -278.62,80.39 -76.7,53.59 -128.9,130.29 -156.62,230.1l870.48 0zm354.85 -532.28l299.39 0 424.16 1067.31 415.84 -1067.31 299.39 0 -557.21 1386.12 -324.35 0 -557.22 -1386.12zm1696.59 795.64c20.34,116.43 70.7,207 151.09,271.67 80.4,64.69 179.73,97.03 298.02,97.03 77.62,0 147.85,-14.32 210.68,-42.97 62.84,-28.65 114.59,-69.76 155.25,-123.36l313.26 0c-53.59,133.07 -139.06,237.95 -256.43,314.64 -117.35,76.7 -258.28,115.06 -422.76,115.06 -109.04,0 -208.85,-17.57 -299.41,-52.68 -90.55,-35.12 -168.18,-85.01 -232.85,-149.7 -64.69,-64.69 -114.6,-142.31 -149.72,-232.87 -35.11,-90.56 -52.66,-190.35 -52.66,-299.39 0,-109.05 17.55,-208.85 52.66,-299.41 35.12,-90.56 85.03,-168.18 149.72,-232.87 64.67,-64.68 142.3,-114.58 232.85,-149.7 90.56,-35.11 190.37,-52.66 299.41,-52.66 109.04,0 208.83,17.55 299.4,52.66 90.56,35.12 168.18,85.02 232.86,149.7 64.69,64.69 114.59,142.31 149.7,232.87 35.12,90.56 52.68,190.36 52.68,299.41 0,18.48 -0.46,36.03 -1.39,52.66 -0.92,16.63 -2.31,33.28 -4.15,49.91l-1178.21 0zm884.35 -263.36c-27.72,-99.81 -79.94,-176.51 -156.64,-230.1 -76.7,-53.6 -169.56,-80.39 -278.6,-80.39 -109.04,0 -201.92,26.79 -278.62,80.39 -76.7,53.59 -128.9,130.29 -156.62,230.1l870.48 0zm742.95 853.84l-291.07 0 0 -1386.12 291.07 0 0 169.11c51.76,-64.69 115.98,-115.97 192.68,-153.86 76.7,-37.88 167.72,-56.82 273.06,-56.82 94.26,0 179.73,16.17 256.43,48.5 76.7,32.34 141.39,77.17 194.06,134.46 52.67,57.3 93.33,125.21 121.98,203.76 28.65,78.54 42.97,164.02 42.97,256.44l0 784.53 -291.09 0 0 -790.09c0,-114.58 -29.1,-205.6 -87.32,-273.06 -58.22,-67.46 -145.55,-101.18 -261.97,-101.18 -62.84,0 -121.53,10.62 -176.04,31.87 -54.52,21.25 -101.18,52.22 -140,92.87 -38.82,40.67 -69.31,90.1 -91.48,148.32 -22.18,58.22 -33.28,124.29 -33.28,198.22l0 693.05zm1552.45 -438.01c0,51.74 6.94,92.41 20.8,121.97 13.86,29.58 33.27,51.76 58.21,66.54 24.96,14.78 53.6,24.02 85.95,27.72 32.34,3.69 66.08,5.54 101.19,5.54l0 263.37c-85.02,5.55 -161.72,-0.46 -230.1,-18.03 -68.38,-17.55 -126.59,-46.66 -174.65,-87.32 -48.06,-40.65 -85.48,-93.34 -112.27,-158.02 -26.8,-64.67 -40.2,-142.3 -40.2,-232.87l0 -1034.98 291.07 0 0 97.97 266.15 0 0 263.36 -266.15 0 0 684.75zm432.48 438.01l0 -1386.12 291.07 0 0 102.57c88.71,-97.95 200.53,-146.93 335.44,-146.93 48.06,0 103.51,7.41 166.35,22.19l-49.91 249.5c-35.12,-5.54 -68.38,-8.32 -99.8,-8.32 -123.83,0 -213.46,41.58 -268.91,124.75 -55.44,83.17 -83.17,199.61 -83.17,349.31l0 693.05 -291.07 0zm1929.46 -155.25c-53.59,59.15 -119.66,106.73 -198.21,142.78 -78.55,36.03 -171.41,54.06 -278.6,54.06 -105.36,0 -201.46,-17.57 -288.32,-52.68 -86.86,-35.12 -162.18,-85.01 -225.94,-149.7 -63.75,-64.69 -113.2,-142.31 -148.32,-232.87 -35.11,-90.56 -52.66,-190.35 -52.66,-299.39 0,-109.05 17.55,-208.85 52.66,-299.41 35.12,-90.56 84.57,-168.18 148.32,-232.87 63.76,-64.68 139.08,-114.58 225.94,-149.7 86.86,-35.11 182.96,-52.66 288.32,-52.66 107.19,0 200.05,18.01 278.6,54.05 78.55,36.04 144.62,83.63 198.21,142.77l0 -155.25 291.09 0 0 1386.12 -291.09 0 0 -155.25zm-914.83 -537.8c0,149.69 42.51,265.67 127.52,347.91 85.02,82.24 194.98,123.36 329.9,123.36 136.77,0 247.19,-41.12 331.28,-123.36 84.09,-82.24 126.13,-198.22 126.13,-347.91 0,-149.7 -42.04,-265.68 -126.13,-347.92 -84.09,-82.25 -194.51,-123.36 -331.28,-123.36 -134.92,0 -244.88,41.11 -329.9,123.36 -85.01,82.24 -127.52,198.22 -127.52,347.92z"></path>
  <path fill="#2A9B85" d="M9337.52 3213.62l-167.43 -567.31c-346.62,-92.55 -748.39,-104.86 -1280.57,132.37l396.78 904.51c322.81,-415.95 682.14,-485.45 1051.22,-469.57z"></path>
  <path fill="#2A9B85" d="M9258.52 2847.53l116.02 393.11 -153.4 160.3c194.09,-99.97 501.3,-121.22 693.63,-22.12 261.59,134.83 682.44,268.6 923.55,-141.51 -483.39,466.85 -835.61,-389.01 -1579.8,-389.78z"></path>
  <path fill="#D4884A" d="M9334.57 3242.38l-138.29 140.75 -58.54 -136.73c80.59,-7.73 117.71,-9.33 196.83,-4.02z"></path>
  <circle fill="#D4884A" cx="7751.38" cy="3167.23" r="166.08"></circle>
  <circle fill="#D4884A" cx="9125.79" cy="3670.64" r="211.73"></circle>
  <circle fill="#D4884A" cx="9426.35" cy="2622.05" r="59.5"></circle>
</svg>